<?xml version="1.0" encoding="UTF-8" standalone="no"?><!DOCTYPE svg PUBLIC "-//W3C//DTD SVG 1.1//EN" "http://www.w3.org/Graphics/SVG/1.1/DTD/svg11.dtd"><svg width="100%" height="100%" viewBox="0 0 2543 879" version="1.1" xmlns="http://www.w3.org/2000/svg" xmlns:xlink="http://www.w3.org/1999/xlink" xml:space="preserve" xmlns:serif="http://www.serif.com/" style="fill-rule:evenodd;clip-rule:evenodd;stroke-linecap:round;stroke-linejoin:round;stroke-miterlimit:1.5;"><g id="レイヤー1"><g><path d="M194.567,466.913l538.815,0" style="fill:none;stroke:#74f2c3;stroke-width:17px;"/><path d="M2106.31,462.314l248.833,0" style="fill:none;stroke:#74f2c3;stroke-width:17px;"/><path d="M736.386,464.072c79.622,-46.787 93.102,-244.357 186.359,-247.072c196.67,-5.724 824.913,-1.01 1024.23,-1.016c97.425,-0.003 105.33,163.926 157.995,245.889" style="fill:none;stroke:#74f2c3;stroke-width:17px;"/><path d="M702.211,465.852c83.495,46.788 97.631,244.358 195.425,247.072c206.237,5.725 865.041,1.01 1074.05,1.017c102.163,0.003 110.453,-163.926 165.68,-245.889" style="fill:none;stroke:#74f2c3;stroke-width:17px;"/></g><g><path d="M194.567,418.763l538.428,0" style="fill:none;stroke:#74f2c3;stroke-width:17px;"/><path d="M2104.94,414.164l248.654,0" style="fill:none;stroke:#74f2c3;stroke-width:17px;"/><path d="M703.33,415.922c83.441,-46.787 97.567,-244.357 195.296,-247.072c206.101,-5.724 864.469,-1.01 1073.34,-1.016c102.096,-0.003 110.38,163.926 165.57,245.889" style="fill:none;stroke:#74f2c3;stroke-width:17px;"/><path d="M735.997,417.702c79.565,46.788 93.036,244.358 186.226,247.072c196.529,5.725 824.321,1.01 1023.49,1.017c97.355,0.003 105.254,-163.926 157.881,-245.889" style="fill:none;stroke:#74f2c3;stroke-width:17px;"/></g><g><a xlink:href="https://www.google.com" target="_blank"><circle cx="177.333" cy="439.848" r="32.824" style="fill:#fff;stroke:#54b3ff;stroke-width:25px;"/></a><circle cx="735.026" cy="439.461" r="32.824" style="fill:#fff;stroke:#54b3ff;stroke-width:25px;"/><circle cx="1162.72" cy="691.048" r="32.824" style="fill:#fff;stroke:#54b3ff;stroke-width:25px;"/><circle cx="1701.87" cy="688.27" r="32.824" style="fill:#fff;stroke:#54b3ff;stroke-width:25px;"/><circle cx="1162.72" cy="187.692" r="32.824" style="fill:#fff;stroke:#54b3ff;stroke-width:25px;"/><circle cx="1701.87" cy="187.87" r="32.824" style="fill:#fff;stroke:#54b3ff;stroke-width:25px;"/><circle cx="2122.77" cy="439.723" r="32.824" style="fill:#fff;stroke:#54b3ff;stroke-width:25px;"/><circle cx="2365.34" cy="439.723" r="32.824" style="fill:#fff;stroke:#54b3ff;stroke-width:25px;"/></g></g></svg>